<svg xmlns="http://www.w3.org/2000/svg" viewBox="369.9766845703125 279.2727355957031 286.43359375 312.6899719238281" width="240" height="262" style="">
<g>

<path d="M 374.00 349.49 L 409.26 314.24 L 444.51 279.00 L 652.49 279.00 L 580.51 351.00 L 479.51 351.00 L 374.00 456.49 ZM 409.74 555.24 L 374.00 519.49 L 374.00 490.43 L 410.75 453.70 L 447.50 416.98 L 448.50 486.93 L 479.30 518.00 L 554.00 518.00 L 554.00 591.00 L 445.49 591.00 ZM 578.76 532.93 L 578.50 474.50 L 530.84 474.00 L 483.17 473.50 L 518.34 437.72 L 553.50 401.93 L 652.00 402.00 L 652.00 519.51 L 618.75 552.54 C600.46,570.70 584.04,586.86 582.26,588.46 L 579.02 591.36 ZM 966.10 988.25 C965.38,986.19 963.67,982.84 962.30,980.80 C959.52,976.69 950.99,970.46 946.75,969.44 C942.96,968.54 943.31,967.52 947.86,966.16 C955.15,963.98 965.01,953.81 966.52,946.91 C967.38,943.01 968.34,943.25 969.90,947.75 C970.62,949.81 972.33,953.16 973.70,955.20 C976.48,959.31 985.01,965.54 989.25,966.56 C992.83,967.41 992.75,968.68 989.08,969.48 C981.81,971.08 971.24,981.72 969.44,989.25 C968.55,992.98 967.65,992.71 966.10,988.25 Z" fill="rgb(49,240,224)" data-index="1" style="opacity: 1;"></path>
<path d="M 293.50 751.36 C283.93,749.90 274.44,745.43 267.89,739.30 C258.31,730.34 254.57,720.59 255.18,706.15 C255.68,694.25 258.41,687.62 266.19,679.39 C279.12,665.72 301.42,661.57 321.53,669.10 C327.59,671.37 337.33,678.51 336.75,680.26 C336.54,680.88 333.34,684.09 329.62,687.40 C323.91,692.49 322.62,693.23 321.19,692.22 C313.86,687.05 310.53,685.70 304.04,685.23 C298.23,684.82 296.41,685.12 291.68,687.29 C281.88,691.78 276.92,701.93 279.03,713.21 C281.64,727.20 295.47,735.05 310.25,730.95 L 314.00 729.91 L 314.00 719.07 C314.00,706.39 313.32,707.04 326.75,707.01 L 335.00 707.00 L 335.00 724.48 L 335.00 741.97 L 330.25 744.37 C319.77,749.67 303.13,752.84 293.50,751.36 ZM 379.00 750.61 C367.30,748.00 358.00,740.82 353.88,731.21 C350.93,724.34 350.07,715.01 350.03,689.75 L 350.00 667.00 L 361.93 667.00 L 373.85 667.00 L 374.18 693.75 C374.49,719.46 374.59,720.67 376.81,724.83 C381.85,734.27 396.65,734.57 402.70,725.34 C404.29,722.91 404.56,719.39 405.00,695.05 L 405.50 667.50 L 417.34 667.22 L 429.19 666.93 L 428.79 695.22 C428.42,721.59 428.24,723.88 426.16,729.15 C422.88,737.48 418.11,743.13 411.35,746.72 C401.89,751.74 390.33,753.13 379.00,750.61 ZM 437.93 743.25 C439.49,739.54 443.45,730.42 446.74,723.00 C453.94,706.77 465.89,679.52 469.00,672.25 L 471.25 667.00 L 483.01 667.00 L 494.78 667.00 L 496.36 670.95 C498.12,675.35 504.49,689.87 518.73,722.00 C523.97,733.83 528.88,744.96 529.64,746.75 L 531.03 750.00 L 518.71 750.00 L 506.39 750.00 L 503.11 741.98 L 499.83 733.95 L 482.28 734.23 L 464.73 734.50 L 461.78 742.25 L 458.83 750.00 L 446.97 750.00 L 435.11 750.00 L 437.93 743.25 ZM 492.74 715.75 C492.48,715.06 490.29,709.22 487.88,702.77 C485.47,696.31 483.22,691.02 482.89,691.02 C482.25,691.00 473.00,714.43 473.00,716.07 C473.00,716.58 477.52,717.00 483.11,717.00 C490.78,717.00 493.10,716.70 492.74,715.75 ZM 539.00 708.50 L 539.00 667.00 L 561.25 667.02 C576.21,667.03 585.35,667.47 589.15,668.36 C605.26,672.15 614.07,684.14 612.75,700.51 C611.81,712.20 605.24,720.77 593.81,725.21 C589.82,726.76 585.33,727.39 575.75,727.77 L 563.00 728.27 L 563.00 739.13 L 563.00 750.00 L 551.00 750.00 L 539.00 750.00 L 539.00 708.50 ZM 583.78 707.61 C587.78,705.54 589.17,702.94 589.17,697.50 C589.17,688.55 585.37,686.00 572.05,686.00 L 563.00 686.00 L 563.00 697.33 C563.00,703.57 563.34,709.02 563.75,709.44 C565.02,710.76 580.41,709.36 583.78,707.61 ZM 626.00 708.49 L 626.00 666.97 L 658.75 667.24 L 691.50 667.50 L 691.59 676.25 L 691.67 685.00 L 670.29 685.00 L 648.91 685.00 L 649.21 692.25 L 649.50 699.50 L 667.75 699.77 L 686.00 700.05 L 686.00 708.52 L 686.00 717.00 L 667.50 717.00 L 649.00 717.00 L 649.00 724.50 L 649.00 732.00 L 671.00 732.00 L 693.00 732.00 L 693.00 741.00 L 693.00 750.00 L 659.50 750.00 L 626.00 750.00 L 626.00 708.49 ZM 707.00 708.50 L 707.00 667.00 L 718.99 667.00 L 730.97 667.00 L 731.24 699.25 C731.47,727.32 731.69,731.45 733.00,731.15 C733.83,730.96 742.71,731.12 752.75,731.51 L 771.00 732.22 L 771.00 741.11 L 771.00 750.00 L 739.00 750.00 L 707.00 750.00 L 707.00 708.50 Z" fill="rgb(243,246,247)" data-index="2"></path>
</g>
</svg>